<?xml version="1.0" encoding="utf-8"?>
<!-- Generator: Adobe Illustrator 16.0.0, SVG Export Plug-In . SVG Version: 6.00 Build 0)  -->
<!DOCTYPE svg PUBLIC "-//W3C//DTD SVG 1.1//EN" "http://www.w3.org/Graphics/SVG/1.1/DTD/svg11.dtd">
<svg version="1.1" id="Layer_1" xmlns="http://www.w3.org/2000/svg" xmlns:xlink="http://www.w3.org/1999/xlink" x="0px" y="0px"
	 width="4096px" height="3000px" viewBox="0 0 4096 3000" enable-background="new 0 0 4096 3000" xml:space="preserve">
<g>
	<g>
		<g>
			<path fill="none" stroke="#61D7B9" stroke-width="112.6606" stroke-miterlimit="10" d="M3566.116,2346.965
				c0,83.84-68.002,151.804-151.813,151.804H681.695c-83.809,0-151.812-67.964-151.812-151.804V626.427
				c0-83.78,68.003-151.811,151.812-151.811h2732.607c83.812,0,151.813,68.03,151.813,151.811V2346.965z"/>
			<path fill="none" stroke="#61D7B9" stroke-width="112.6606" stroke-miterlimit="10" d="M1647.001,517.415l-3.764-295.83
				c0-83.767,67.931-151.8,151.811-151.8h505.9c83.883,0,151.814,68.033,151.814,151.8v253.032"/>
			
				<line fill="none" stroke="#61D7B9" stroke-width="112.6606" stroke-linecap="round" stroke-miterlimit="10" x1="1035.99" y1="474.617" x2="1035.99" y2="2701.246"/>
			
				<line fill="none" stroke="#61D7B9" stroke-width="112.6606" stroke-linecap="round" stroke-miterlimit="10" x1="3060.143" y1="474.617" x2="3060.143" y2="2701.246"/>
		</g>
		
			<line fill="none" stroke="#61D7B9" stroke-width="112.6606" stroke-linecap="round" stroke-miterlimit="10" x1="2808.935" y1="703.031" x2="2808.935" y2="703.031"/>
	</g>
	<path fill="none" stroke="#61D7B9" stroke-width="112.6606" stroke-linecap="round" stroke-miterlimit="10" d="M2359.853,1637.823
		c0,172.232-139.623,311.858-311.854,311.858c-172.231,0-311.853-139.626-311.853-311.858c0-172.23,139.621-311.851,311.853-311.851
		C2220.229,1325.973,2359.853,1465.593,2359.853,1637.823z"/>
	<path fill="none" stroke="#61D7B9" stroke-width="112.6606" stroke-linecap="round" stroke-miterlimit="10" d="M2618.301,1629.398
		c0,314.966-255.333,570.303-570.302,570.303s-570.3-255.337-570.3-570.303c0-314.97,255.331-570.301,570.3-570.301
		S2618.301,1314.429,2618.301,1629.398z"/>
</g>
</svg>
